<?xml version="1.0" standalone="no"?>
<!DOCTYPE svg PUBLIC "-//W3C//DTD SVG 20010904//EN"
 "http://www.w3.org/TR/2001/REC-SVG-20010904/DTD/svg10.dtd">
<svg version="1.0" xmlns="http://www.w3.org/2000/svg"
 width="865.000000pt" height="865.000000pt" viewBox="0 0 865.000000 865.000000"
 preserveAspectRatio="xMidYMid meet">
<metadata>
Created by potrace 1.11, written by Peter Selinger 2001-2013
</metadata>
<g transform="translate(0.000000,865.000000) scale(0.100000,-0.100000)"
fill="#000000" stroke="none">
<path d="M4147 8643 c-1 0 -58 -4 -127 -7 -69 -4 -134 -9 -145 -11 -11 -2 -51
-7 -90 -10 -38 -3 -81 -7 -95 -9 -186 -24 -320 -46 -445 -72 -38 -8 -81 -17
-95 -19 -14 -2 -58 -13 -99 -24 -41 -11 -77 -19 -80 -19 -3 1 -13 -2 -21 -5
-13 -6 -117 -35 -145 -40 -5 -2 -16 -6 -23 -11 -7 -4 -16 -5 -19 -2 -3 3 -11
2 -17 -3 -6 -5 -38 -17 -71 -27 -73 -21 -67 -19 -85 -26 -8 -4 -62 -23 -120
-43 -90 -32 -159 -59 -298 -117 -15 -6 -29 -12 -32 -12 -3 -1 -45 -21 -95 -45
-49 -23 -94 -43 -100 -44 -5 -1 -16 -8 -23 -15 -8 -7 -18 -10 -23 -7 -5 4 -9
1 -9 -5 0 -6 -5 -8 -10 -5 -5 3 -10 2 -10 -4 0 -8 -40 -27 -48 -22 -1 1 -10
-5 -18 -14 -9 -8 -20 -13 -25 -10 -5 4 -9 1 -9 -5 0 -6 -5 -8 -10 -5 -6 3 -10
2 -10 -3 0 -9 -70 -47 -82 -44 -5 1 -8 -2 -8 -7 0 -5 -16 -15 -35 -22 -19 -7
-35 -16 -35 -20 0 -9 -41 -24 -53 -21 -5 1 -6 -1 -3 -6 3 -5 -17 -19 -44 -33
-27 -13 -50 -27 -50 -31 0 -5 -5 -8 -12 -8 -6 0 -26 -11 -44 -25 -18 -14 -35
-25 -38 -25 -3 0 -28 -16 -56 -36 -27 -20 -50 -33 -50 -30 0 3 -14 -6 -31 -21
-17 -16 -35 -27 -40 -25 -5 1 -9 -2 -9 -7 0 -12 -72 -57 -85 -53 -5 2 -7 1 -3
-3 6 -7 -164 -146 -177 -145 -3 0 -22 -16 -43 -36 -20 -20 -48 -47 -62 -60
-14 -14 -29 -21 -34 -17 -4 4 -6 1 -4 -7 2 -8 -3 -14 -10 -12 -8 1 -11 -2 -8
-7 4 -5 -3 -16 -14 -24 -11 -8 -61 -53 -110 -101 -50 -47 -95 -86 -102 -86 -6
0 -8 -3 -5 -6 3 -4 -5 -15 -18 -26 -14 -11 -25 -25 -25 -31 0 -6 27 -37 60
-69 33 -31 60 -62 60 -68 0 -5 5 -10 11 -10 31 0 141 -164 183 -275 36 -91 79
-265 91 -365 4 -30 8 -66 10 -80 8 -48 19 -196 31 -410 4 -58 8 -544 9 -1080
1 -536 5 -997 9 -1025 3 -27 8 -68 10 -90 3 -22 12 -80 21 -130 9 -49 18 -101
20 -115 1 -14 5 -32 8 -40 10 -29 62 -235 62 -245 0 -5 2 -12 5 -15 4 -4 33
-88 45 -130 1 -3 7 -18 14 -35 7 -16 14 -34 15 -40 2 -5 6 -18 10 -27 4 -9 8
-22 10 -30 1 -7 6 -20 11 -28 12 -18 75 -161 78 -175 1 -5 4 -12 7 -15 3 -3
21 -34 39 -70 19 -36 42 -79 52 -97 10 -17 15 -34 12 -37 -4 -3 -1 -6 5 -6 6
0 18 -14 26 -30 9 -16 23 -43 31 -59 9 -16 21 -34 29 -40 7 -6 21 -29 31 -51
10 -22 22 -40 27 -40 5 0 6 -4 3 -10 -3 -6 -2 -10 3 -10 11 0 55 -61 55 -77 0
-7 2 -11 5 -9 5 5 132 -162 132 -174 0 -4 7 -11 16 -14 8 -3 12 -11 8 -17 -4
-7 -3 -9 3 -6 5 3 27 -17 49 -45 46 -61 123 -145 254 -277 51 -53 94 -99 95
-103 0 -5 5 -8 10 -8 6 0 35 -24 65 -54 30 -29 93 -86 140 -126 47 -41 87 -76
90 -80 3 -4 13 -9 23 -13 10 -4 15 -12 12 -17 -4 -6 -3 -9 2 -8 13 4 54 -28
45 -36 -4 -4 -2 -6 3 -4 14 4 136 -88 127 -97 -4 -4 -2 -5 5 -3 11 3 114 -69
121 -84 2 -5 8 -8 13 -8 8 0 148 -95 176 -119 7 -6 14 -11 17 -11 11 0 95 -57
91 -62 -3 -3 1 -5 8 -5 20 -1 177 -100 169 -108 -4 -3 -2 -6 3 -5 19 4 34 0
47 -13 7 -7 30 -21 51 -30 20 -10 37 -23 37 -29 0 -6 3 -8 7 -5 3 4 26 -5 51
-19 24 -14 77 -43 118 -64 40 -20 70 -41 66 -45 -4 -3 -2 -5 4 -3 13 4 114
-43 114 -53 0 -5 6 -6 14 -3 7 3 20 -1 27 -8 8 -7 21 -14 29 -16 8 -2 21 -9
28 -15 8 -6 19 -12 26 -13 6 -1 45 -17 86 -36 41 -19 96 -43 123 -53 26 -10
47 -22 47 -27 0 -5 5 -6 10 -3 6 4 16 3 23 -3 7 -5 39 -19 72 -32 33 -13 64
-27 70 -32 21 -18 75 -7 148 33 10 5 22 7 27 4 6 -4 10 -2 10 4 0 5 15 15 34
21 19 6 52 19 73 30 21 10 41 16 45 13 5 -2 8 1 8 6 0 6 4 11 10 11 5 0 33 11
62 24 29 14 60 26 68 28 8 2 17 5 20 8 8 10 124 65 135 65 6 0 12 3 15 6 9 10
160 88 160 83 0 -3 7 2 16 10 8 9 20 14 25 11 5 -4 9 -2 9 3 0 9 50 37 63 34
4 -1 7 3 7 9 0 5 5 7 10 4 6 -3 10 -2 10 4 0 6 11 13 25 17 14 3 25 10 25 15
0 5 4 9 9 9 8 0 102 55 231 134 19 11 38 20 43 18 4 -1 7 2 7 8 0 11 60 45 73
42 5 -1 6 1 3 6 -5 8 43 37 53 32 2 -1 8 5 13 14 5 9 14 16 19 16 6 0 17 6 24
13 32 28 45 37 45 32 0 -3 8 2 18 11 14 13 95 73 192 142 29 21 281 221 296
236 6 6 42 38 79 71 82 72 305 292 360 355 22 25 42 45 45 45 3 0 4 2 3 5 -1
3 28 37 63 75 36 39 64 70 62 70 -1 0 4 10 13 22 9 13 19 20 23 15 4 -4 6 -2
5 3 -4 12 86 136 95 130 3 -3 4 -2 2 1 -3 3 17 36 43 72 26 37 64 95 85 129
22 35 43 63 48 63 5 0 7 4 3 10 -3 5 3 18 15 30 11 11 20 22 20 25 0 3 0 10 0
16 0 5 6 7 13 3 6 -4 9 -4 5 1 -4 4 7 33 24 64 60 107 136 267 183 386 26 66
51 129 56 140 7 18 65 207 74 245 19 77 54 243 58 275 3 22 10 69 16 105 22
146 25 244 26 1150 2 948 7 1190 29 1390 3 19 7 64 11 99 3 35 13 98 20 140 8
42 17 89 20 105 2 16 12 54 21 85 10 31 18 58 19 61 12 51 74 180 87 180 5 0
7 4 4 9 -10 15 133 181 155 181 5 0 9 5 9 10 0 6 18 27 40 47 22 21 40 42 40
48 0 6 -26 35 -57 64 -142 132 -170 160 -165 166 3 3 0 5 -6 5 -17 0 -52 32
-46 42 3 5 0 7 -8 6 -7 -2 -12 3 -11 9 2 7 -1 12 -5 10 -7 -2 -94 68 -152 123
-15 14 -29 25 -32 25 -3 0 -22 15 -42 33 -19 17 -38 32 -42 32 -8 0 -87 61
-96 75 -4 5 -12 10 -18 10 -6 0 -14 6 -19 13 -5 8 -12 14 -17 14 -9 1 -114 68
-124 79 -3 3 -44 29 -92 58 -49 30 -88 58 -88 64 0 6 -3 8 -6 4 -9 -8 -64 21
-64 33 0 6 -3 10 -7 9 -20 -3 -52 14 -46 25 3 6 3 8 -2 4 -7 -7 -83 26 -95 41
-3 3 -36 22 -75 41 -38 19 -73 39 -76 43 -3 5 -9 8 -13 7 -11 -2 -121 52 -128
64 -4 6 -8 7 -8 3 0 -4 -10 -2 -22 5 -13 7 -25 13 -28 13 -3 0 -48 19 -100 42
-154 67 -174 76 -185 79 -5 1 -51 18 -102 37 -50 19 -112 40 -137 48 -25 7
-46 17 -46 22 0 4 -4 6 -8 3 -4 -2 -48 9 -97 25 -50 16 -98 29 -107 29 -10 0
-18 5 -18 11 0 5 -4 8 -8 5 -4 -2 -39 4 -77 15 -90 25 -370 88 -427 95 -23 4
-50 10 -59 15 -9 4 -18 6 -21 4 -2 -3 -45 2 -94 10 -102 18 -130 21 -234 29
-41 4 -88 8 -105 11 -77 11 -618 28 -628 18z"/>
</g>
</svg>
